# xmcd CD database file
#
# Track frame offsets:
#	150
#	16221
#	30801
#	41018
#	55578
#	66935
#	81781
#	92473
#	106606
#	119195
#	131554
#	145184
#	160184
#	174773
#	188501
#	203256
#	214689
#	228969
#	243757
#	257828
#
# Disc length: 3632 seconds
#
# Revision: 0
# Processed by: cddbd v1.5.2PL0 Copyright (c) Steve Scherf et al.
# Submitted via: CDex 1.51
#
DISCID=f10e2e14
DTITLE=Various Artist - Noon Jazz
DYEAR=1900
DGENRE=Jazz
TTITLE0=Lester Young - Almost Like Being In Love
TTITLE1=Errol Garner - The Petite Waltz Bounce
TTITLE2=Chet Baker - Long Ago And Far Away
TTITLE3=Louis Armstrong and Billie Holiday - You Can't Lose A Broken Heart
TTITLE4=Charlie Parker - Barbados
TTITLE5=Duke Ellington - Thing Ain't What Tey Used To Be
TTITLE6=Nat King Cole - This Is Night To Dream
TTITLE7=Howard Rumsey - Mambo Los Feliz
TTITLE8=Stan Gez - Indian Summer
TTITLE9=Hamton Hawes - Thou Swell
TTITLE10=Django Renhardt - Blues Clair
TTITLE11=Billie Holiday - T'Ain't Nobody's Business If I Do
TTITLE12=Oscar Peterson - Robbins Nest
TTITLE13=Shelly Manne and His Men - You're My Thrill
TTITLE14=Fats Waller - Honey Hush
TTITLE15=Frank Sinatra - The Continental
TTITLE16=Gerry Mulligan - Frenesi
TTITLE17=Ella Fitzgerald - Sentimental Journey
TTITLE18=Shelly Manne and His Men - You And The Night And The Music
TTITLE19=Django Reinhardt - Minor Swing
EXTD=
EXTT0=
EXTT1=
EXTT2=
EXTT3=
EXTT4=
EXTT5=
EXTT6=
EXTT7=
EXTT8=
EXTT9=
EXTT10=
EXTT11=
EXTT12=
EXTT13=
EXTT14=
EXTT15=
EXTT16=
EXTT17=
EXTT18=
EXTT19=
PLAYORDER=
